<svg width="20" height="20" viewBox="0 0 20 20" fill="none" xmlns="http://www.w3.org/2000/svg">
<path fill-rule="evenodd" clip-rule="evenodd" d="M6 3.07227C5.29523 3.47916 4.93179 4.25023 5.01016 5.01054C4.24981 4.93214 3.47869 5.29557 3.07178 6.00037C2.66492 6.70507 2.73566 7.55444 3.18355 8.17369C2.48599 8.48602 2 9.18625 2 10C2 10.8138 2.486 11.514 3.18358 11.8263C2.73569 12.4456 2.66496 13.2949 3.07182 13.9996C3.47874 14.7044 4.24989 15.0679 5.01026 14.9895C4.93149 15.7501 5.29493 16.5216 6 16.9287C6.70486 17.3356 7.55446 17.2648 8.17375 16.8166C8.4861 17.5141 9.18631 18 10 18C10.8137 18 11.5139 17.5141 11.8262 16.8166C12.4455 17.2648 13.2951 17.3356 14 16.9287C14.7048 16.5217 15.0683 15.7506 14.9898 14.9902C15.7502 15.0686 16.5213 14.7052 16.9282 14.0004C17.3352 13.2955 17.2643 12.4458 16.816 11.8265C17.5138 11.5143 18 10.8139 18 10C18 9.18609 17.5138 8.48574 16.816 8.17351C17.2643 7.55421 17.3352 6.70454 16.9282 5.99963C16.5213 5.29485 15.7502 4.93142 14.9899 5.0098C15.068 4.24972 14.7045 3.47903 14 3.07227C13.2953 2.66538 12.4458 2.73615 11.8266 3.18412C11.5144 2.48625 10.814 2 10 2C9.18603 2 8.48563 2.48625 8.17344 3.18412C7.55417 2.73615 6.70473 2.66538 6 3.07227ZM12.832 7.55481C13.1384 7.09528 13.0142 6.47441 12.5547 6.16806C12.0952 5.8617 11.4743 5.98588 11.1679 6.44541L7.16793 12.4454C6.86158 12.9049 6.98576 13.5258 7.44528 13.8322C7.90481 14.1385 8.52568 14.0143 8.83203 13.5548L12.832 7.55481ZM7 9C7.55228 9 8 8.55228 8 8C8 7.44772 7.55228 7 7 7C6.44772 7 6 7.44772 6 8C6 8.55228 6.44772 9 7 9ZM14 12C14 12.5523 13.5523 13 13 13C12.4477 13 12 12.5523 12 12C12 11.4477 12.4477 11 13 11C13.5523 11 14 11.4477 14 12Z" fill="#5C5F62"/>
</svg>
