<svg width="16" height="16" viewBox="0 0 16 16" fill="none" xmlns="http://www.w3.org/2000/svg">
<path fill-rule="evenodd" clip-rule="evenodd" d="M8.00005 11C6.34305 11 5.00005 9.657 5.00005 8C5.00005 6.343 6.34305 5 8.00005 5C9.65705 5 11 6.343 11 8C11 9.657 9.65705 11 8.00005 11ZM15.476 9.754C14.082 9 14.082 7 15.476 6.246C15.718 6.115 15.895 5.89 15.966 5.625C16.037 5.359 15.996 5.076 15.852 4.842L14.785 3.109C14.507 2.658 13.925 2.502 13.458 2.754L13.011 2.997C11.682 3.716 10.066 2.753 10.066 1.242V1C10.066 0.448 9.61905 0 9.06605 0H6.93405C6.38105 0 5.93405 0.448 5.93405 1V1.242C5.93405 2.753 4.31805 3.716 2.98905 2.997L2.54205 2.754C2.07505 2.502 1.49305 2.658 1.21505 3.109L0.148049 4.842C0.00404891 5.076 -0.0369511 5.359 0.0340489 5.625C0.105049 5.89 0.282049 6.115 0.524049 6.246C1.91805 7 1.91805 9 0.524049 9.754C0.282049 9.885 0.105049 10.11 0.0340489 10.375C-0.0369511 10.641 0.00404891 10.924 0.148049 11.158L1.21505 12.891C1.49305 13.342 2.07505 13.498 2.54205 13.246L2.98905 13.003C4.31805 12.284 5.93405 13.247 5.93405 14.758V15C5.93405 15.552 6.38105 16 6.93405 16H9.06605C9.61905 16 10.066 15.552 10.066 15V14.758C10.066 13.247 11.682 12.284 13.011 13.003L13.458 13.246C13.925 13.498 14.507 13.342 14.785 12.891L15.852 11.158C15.996 10.924 16.037 10.641 15.966 10.375C15.895 10.11 15.718 9.885 15.476 9.754Z" fill="#5C5F62"/>
</svg>
