<svg width="16" height="16" viewBox="0 0 16 16" fill="none" xmlns="http://www.w3.org/2000/svg">
<path fill-rule="evenodd" clip-rule="evenodd" d="M2 0C0.895431 0 0 0.895431 0 2V14C0 15.1046 0.895431 16 2 16H14C15.1046 16 16 15.1046 16 14V2C16 0.895431 15.1046 0 14 0H2ZM10.1037 8.79885L9.91815 9.13437L9.66027 9.41987C9.58426 9.50401 9.50402 9.58426 9.41987 9.66027L9.13438 9.91815L8.79886 10.1037C8.32378 10.3665 7.77737 10.5164 7.19333 10.5164C5.35804 10.5164 3.87023 9.02864 3.87023 7.19334C3.87023 5.35804 5.35804 3.87024 7.19333 3.87024C9.02863 3.87024 10.5164 5.35804 10.5164 7.19334C10.5164 7.77737 10.3665 8.32378 10.1037 8.79885ZM12.9346 12.095C13.0218 11.8724 13.0218 11.6236 12.9346 11.401C12.8883 11.2829 12.8174 11.1722 12.722 11.0768L10.8652 9.22007C11.1975 8.61934 11.3867 7.92843 11.3867 7.19334C11.3867 4.87742 9.50925 3 7.19333 3C4.87742 3 3 4.87742 3 7.19334C3 9.50925 4.87742 11.3867 7.19333 11.3867C7.92843 11.3867 8.61935 11.1975 9.22007 10.8652L11.0768 12.722C11.1722 12.8174 11.2829 12.8883 11.401 12.9346C11.6236 13.0218 11.8724 13.0218 12.095 12.9346C12.213 12.8883 12.3237 12.8174 12.4191 12.722L12.722 12.4191C12.8174 12.3237 12.8883 12.213 12.9346 12.095ZM12.0508 11.748L11.748 12.0508L10.0032 10.3061C10.1092 10.2103 10.2103 10.1092 10.3061 10.0032L12.0508 11.748ZM7.19334 4.97723C5.96942 4.97723 4.97723 5.96942 4.97723 7.19334C4.97723 8.41726 5.96942 9.40944 7.19334 9.40944C8.41726 9.40944 9.40944 8.41726 9.40944 7.19334C9.40944 5.96942 8.41726 4.97723 7.19334 4.97723ZM5.84747 7.19334C5.84747 6.45003 6.45003 5.84747 7.19334 5.84747C7.93664 5.84747 8.53921 6.45003 8.53921 7.19334C8.53921 7.93664 7.93664 8.53921 7.19334 8.53921C6.45003 8.53921 5.84747 7.93664 5.84747 7.19334Z" fill="#5C5F62"/>
</svg>
